<svg width="1440" height="590" viewBox="0 0 1440 590" fill="none" xmlns="http://www.w3.org/2000/svg">
<path d="M1440 558V32C1431.53 32 1423.57 29.8068 1416.67 25.9573C1398.49 15.8245 1380.81 0 1360 0C1339.19 0 1321.51 15.8245 1303.33 25.9573C1296.43 29.8068 1288.47 32 1280 32C1271.53 32 1263.57 29.8068 1256.67 25.9573C1238.49 15.8245 1220.81 0 1200 0C1179.19 0 1161.51 15.8245 1143.33 25.9573C1136.43 29.8068 1128.47 32 1120 32C1111.53 32 1103.57 29.8068 1096.67 25.9573C1078.49 15.8245 1060.81 0 1040 0C1019.19 0 1001.51 15.8245 983.333 25.9573C976.425 29.8068 968.469 32 960 32C951.531 32 943.575 29.8068 936.667 25.9573C918.485 15.8245 900.815 0 880 0C859.185 0 841.515 15.8245 823.333 25.9573C816.425 29.8068 808.469 32 800 32C791.531 32 783.575 29.8068 776.667 25.9573C758.485 15.8245 740.815 0 720 0C699.185 0 681.515 15.8245 663.333 25.9573C656.425 29.8068 648.469 32 640 32C631.531 32 623.575 29.8068 616.667 25.9573C598.485 15.8245 580.815 0 560 0C539.185 0 521.515 15.8245 503.333 25.9573C496.425 29.8068 488.469 32 480 32C471.531 32 463.575 29.8068 456.667 25.9573C438.485 15.8245 420.815 0 400 0C379.185 0 361.515 15.8245 343.333 25.9573C336.425 29.8068 328.469 32 320 32C311.531 32 303.575 29.8068 296.667 25.9573C278.485 15.8245 260.815 0 240 0C219.185 0 201.515 15.8245 183.333 25.9573C176.425 29.8068 168.469 32 160 32C151.531 32 143.575 29.8068 136.667 25.9573C118.485 15.8245 100.815 0 80 0C59.1851 0 41.5146 15.8245 23.3327 25.9573C16.4254 29.8068 8.4688 32 0 32V558C8.4688 558 16.4254 560.193 23.3326 564.043C41.5146 574.175 59.1851 590 80 590C100.815 590 118.485 574.175 136.667 564.043C143.575 560.193 151.531 558 160 558C168.469 558 176.425 560.193 183.333 564.043C201.515 574.175 219.185 590 240 590C260.815 590 278.485 574.175 296.667 564.043C303.575 560.193 311.531 558 320 558C328.469 558 336.425 560.193 343.333 564.043C361.515 574.175 379.185 590 400 590C420.815 590 438.485 574.175 456.667 564.043C463.575 560.193 471.531 558 480 558C488.469 558 496.425 560.193 503.333 564.043C521.515 574.175 539.185 590 560 590C580.815 590 598.485 574.175 616.667 564.043C623.575 560.193 631.531 558 640 558C648.469 558 656.425 560.193 663.333 564.043C681.515 574.175 699.185 590 720 590C740.815 590 758.485 574.175 776.667 564.043C783.575 560.193 791.531 558 800 558C808.469 558 816.425 560.193 823.333 564.043C841.515 574.175 859.185 590 880 590C900.815 590 918.485 574.175 936.667 564.043C943.575 560.193 951.531 558 960 558C968.469 558 976.425 560.193 983.333 564.043C1001.51 574.175 1019.19 590 1040 590C1060.81 590 1078.49 574.175 1096.67 564.043C1103.57 560.193 1111.53 558 1120 558C1128.47 558 1136.43 560.193 1143.33 564.043C1161.51 574.175 1179.19 590 1200 590C1220.81 590 1238.49 574.175 1256.67 564.043C1263.57 560.193 1271.53 558 1280 558C1288.47 558 1296.43 560.193 1303.33 564.043C1321.51 574.175 1339.19 590 1360 590C1380.81 590 1398.49 574.175 1416.67 564.043C1423.57 560.193 1431.53 558 1440 558Z" fill="#DFF5FF"/>
</svg>
